<?xml version="1.0" encoding="utf-8"?>
<!-- Generator: Adobe Illustrator 19.2.0, SVG Export Plug-In . SVG Version: 6.00 Build 0)  -->
<svg version="1.1" id="Layer_1" xmlns="http://www.w3.org/2000/svg" xmlns:xlink="http://www.w3.org/1999/xlink" x="0px" y="0px"
	 viewBox="0 0 186 186" style="enable-background:new 0 0 186 186;" xml:space="preserve">
<style type="text/css">
	.st0{fill:#00778B;stroke:#FFFFFF;stroke-width:2;}
	.st1{fill:#00AF66;stroke:#FFFFFF;stroke-width:2;}
	.st2{fill:#F3DE4C;stroke:#FFFFFF;stroke-width:2;}
	.st3{fill:#F89B49;stroke:#FFFFFF;stroke-width:2;}
	.st4{fill:#754C90;stroke:#FFFFFF;stroke-width:2;}
	.st5{fill:#ED509D;stroke:#FFFFFF;stroke-width:2;}
	.st6{fill:#2AADE4;stroke:#FFFFFF;stroke-width:2;}
	.st7{fill:#FFFFFF;stroke:#FFFFFF;stroke-width:2;}
	.st8{fill:#FFFFFF;}
	.st9{font-family:'ArialMT';}
	.st10{font-size:16px;}
	.st11{font-size:14px;}
	.st12{fill:#FCFCFC;}
</style>
<g id="_x23_panel_x5F_left">
	<g transform="translate(93,93)">
		<path class="st0" d="M-58.2,72.6C-88.3,48.4-100.4,8.1-88.5-28.7l87.6,28l0,0L-58.2,72.6z"/>
		<path class="st1" d="M-88.5-28.7C-76.3-66.2-41.8-92-2.3-93l1.5,92.3l0,0L-88.5-28.7z"/>
		<path class="st2" d="M-2.3-93c40.3-1,76.6,24,90,62L-0.9-0.6l0,0L-2.3-93z"/>
		<path class="st3" d="M87.7-30.9C101.4,7.8,88,51,54.7,75.2L-0.9-0.6l0,0L87.7-30.9z"/>
		<path class="st4" d="M54.7,75.2C20.8,99.9-25.4,98.8-58.2,72.6L-0.9-0.6l0,0L54.7,75.2z"/>
	</g>
	<g transform="translate(93,93)">
		<path class="st5" d="M-1.2,48C-27.7,47.3-48.6,25.3-48-1.2C-47.3-27.1-26.2-47.8-0.3-48L-1.2,48z"/>
		<path class="st6" d="M-0.3-48C26.2-48.2,47.8-26.8,48-0.3C48.2,26.2,26.8,47.8,0.3,48c-0.5,0-1,0-1.5,0L-0.3-48z"/>
	</g>
	<circle class="st7" cx="92.1" cy="92.4" r="22"/>
</g>
<text transform="matrix(1 0 0 1 53.987 96.5)" class="st8 st9 st10">F</text>
<text transform="matrix(1 0 0 1 119.8753 96.4999)" class="st8 st9 st10">M</text>
<text transform="matrix(1 0 0 1 38.3305 40.6846)" class="st8 st9 st11">65+</text>
<text transform="matrix(1 0 0 1 7.6536 115.1217)" class="st8 st9 st11">50-64</text>
<text transform="matrix(1 0 0 1 73.6536 165.562)" class="st12 st9 st11">19-49</text>
<text transform="matrix(1 0 0 1 143.9999 114.5553)" class="st8 st9 st11">02-18</text>
<text transform="matrix(1 0 0 1 120.8753 40.6846)" class="st8 st9 st11">0-1</text>
</svg>
