<?xml version="1.0" encoding="utf-8"?>
<!-- Generator: Adobe Illustrator 19.2.0, SVG Export Plug-In . SVG Version: 6.00 Build 0)  -->
<svg version="1.1" id="Layer_1" xmlns="http://www.w3.org/2000/svg" xmlns:xlink="http://www.w3.org/1999/xlink" x="0px" y="0px"
	 viewBox="0 0 186 186" style="enable-background:new 0 0 186 186;" xml:space="preserve">
<style type="text/css">
	.st0{display:none;}
	.st1{display:inline;fill:#00AF66;stroke:#FFFFFF;stroke-width:2;}
	.st2{display:inline;fill:#00778B;stroke:#FFFFFF;stroke-width:2;}
	.st3{display:inline;fill:#754C90;stroke:#FFFFFF;stroke-width:2;}
	.st4{display:inline;fill:#F89B49;stroke:#FFFFFF;stroke-width:2;}
	.st5{display:inline;fill:#F3DE4C;stroke:#FFFFFF;stroke-width:2;}
	.st6{display:inline;fill:#ED509D;stroke:#FFFFFF;stroke-width:2;}
	.st7{display:inline;fill:#2AADE4;stroke:#FFFFFF;stroke-width:2;}
	.st8{display:inline;fill:#FFFFFF;stroke:#FFFFFF;stroke-width:2;}
	.st9{fill:#515151;}
	.st10{font-family:'ArialMT';}
	.st11{font-size:14px;}
	.st12{fill:#00AF66;}
	.st13{fill:#00778B;}
	.st14{fill:#754C90;}
	.st15{fill:#F89B49;}
	.st16{fill:#F3DE4C;}
	.st17{fill:#ED509D;}
	.st18{font-size:16px;}
	.st19{fill:#2AADE4;}
</style>
<g id="_x23_panel_x5F_left" class="st0">
	<g transform="translate(93,93)">
		<path class="st1" d="M-88.5-28.7C-76.3-66.2-41.8-92-2.3-93l1.5,92.3l0,0L-88.5-28.7z"/>
		<path class="st2" d="M-58.2,72.6C-88.3,48.4-100.4,8.1-88.5-28.7l87.6,28l0,0L-58.2,72.6z"/>
		<path class="st3" d="M54.7,75.2C20.8,99.9-25.4,98.8-58.2,72.6L-0.9-0.6l0,0L54.7,75.2z"/>
		<path class="st4" d="M87.7-30.9C101.4,7.8,88,51,54.7,75.2L-0.9-0.6l0,0L87.7-30.9z"/>
		<path class="st5" d="M-2.3-93c40.3-1,76.6,24,90,62L-0.9-0.6l0,0L-2.3-93z"/>
	</g>
	<g transform="translate(93,93)">
		<path class="st6" d="M-1.2,48C-27.7,47.3-48.6,25.3-48-1.2C-47.3-27.1-26.2-47.8-0.3-48L-1.2,48z"/>
		<path class="st7" d="M-0.3-48C26.2-48.2,47.8-26.8,48-0.3C48.2,26.2,26.8,47.8,0.3,48c-0.5,0-1,0-1.5,0L-0.3-48z"/>
	</g>
	<circle class="st8" cx="92.1" cy="92.4" r="22"/>
</g>
<g>
	<g>
		<text transform="matrix(1 0 0 1 49.2198 34.9363)" class="st9 st10 st11">65+</text>
		<circle class="st12" cx="40.3" cy="29.6" r="5.4"/>
	</g>
	<g>
		<text transform="matrix(1 0 0 1 26.5429 103.3734)" class="st9 st10 st11">50-64</text>
		<circle class="st13" cx="18.5" cy="98" r="5.4"/>
	</g>
	<g>
		<text transform="matrix(1 0 0 1 84.5429 159.8137)" class="st9 st10 st11">19-49</text>
		<circle class="st14" cx="77.2" cy="154.4" r="5.4"/>
	</g>
	<g>
		<text transform="matrix(1 0 0 1 130.8892 102.807)" class="st9 st10 st11">2-18</text>
		<circle class="st15" cx="167.6" cy="98" r="5.4"/>
	</g>
	<g>
		<text transform="matrix(1 0 0 1 131.7646 34.9363)" class="st9 st10 st11">0-1</text>
		<circle class="st16" cx="122.9" cy="29.6" r="5.4"/>
	</g>
	<g>
		<circle class="st17" cx="74.6" cy="67.1" r="5.4"/>
		<text transform="matrix(1 0 0 1 82.5428 72.2517)" class="st9 st10 st18">Female</text>
	</g>
	<g>
		<circle class="st19" cx="74.9" cy="125.6" r="5.4"/>
		<text transform="matrix(1 0 0 1 82.7804 130.7681)" class="st9 st10 st18">Male</text>
	</g>
</g>
</svg>
